<svg version="1.1" xmlns="http://www.w3.org/2000/svg" xmlns:xlink="http://www.w3.org/1999/xlink" width="516" height="276"><defs/><g><g transform="translate(-182,-246) scale(1,1)"><rect fill="#C0C0C0" stroke="none" x="479" y="367" width="216" height="32" opacity="0.2"/></g><g transform="translate(-182,-246) scale(1,1)"><rect fill="#ffffff" stroke="none" x="472" y="360" width="216" height="32"/></g><g transform="translate(-182,-246) scale(1,1)"><path fill="none" stroke="#000000" d="M 472 360 L 688 360 L 688 392 L 472 392 L 472 360 Z Z" stroke-miterlimit="10"/></g><g transform="translate(-182,-246) scale(1,1)"><rect fill="#ffffff" stroke="none" x="472" y="360" width="216" height="32"/></g><g transform="translate(-182,-246) scale(1,1)"><path fill="none" stroke="#000000" d="M 472 360 L 688 360 L 688 392 L 472 392 L 472 360 Z Z" stroke-miterlimit="10"/></g><g transform="translate(-182,-246) scale(1,1)"><g><path fill="none" stroke="none"/><text fill="#000000" stroke="none" font-family="Arial" font-size="13px" font-style="normal" font-weight="bold" text-decoration="none" x="508" y="379.5">Realm execution context</text><path fill="none" stroke="#000000" d="M 656 379.5 L 504 379.5" stroke-miterlimit="10"/></g></g><g transform="translate(-182,-246) scale(1,1)"><rect fill="#C0C0C0" stroke="none" x="247" y="367" width="120" height="32" opacity="0.2"/></g><g transform="translate(-182,-246) scale(1,1)"><rect fill="#ffffff" stroke="none" x="240" y="360" width="120" height="32"/></g><g transform="translate(-182,-246) scale(1,1)"><path fill="none" stroke="#000000" d="M 240 360 L 360 360 L 360 392 L 240 392 L 240 360 Z Z" stroke-miterlimit="10"/></g><g transform="translate(-182,-246) scale(1,1)"><rect fill="#ffffff" stroke="none" x="240" y="360" width="120" height="32"/></g><g transform="translate(-182,-246) scale(1,1)"><path fill="none" stroke="#000000" d="M 240 360 L 360 360 L 360 392 L 240 392 L 240 360 Z Z" stroke-miterlimit="10"/></g><g transform="translate(-182,-246) scale(1,1)"><g><path fill="none" stroke="none"/><text fill="#000000" stroke="none" font-family="Arial" font-size="13px" font-style="normal" font-weight="bold" text-decoration="none" x="251" y="379.5">JavaScript realm</text><path fill="none" stroke="#000000" d="M 352 379.5 L 248 379.5" stroke-miterlimit="10"/></g></g><g transform="translate(-182,-246) scale(1,1)"><rect fill="#C0C0C0" stroke="none" x="487" y="263" width="200" height="32" opacity="0.2"/></g><g transform="translate(-182,-246) scale(1,1)"><rect fill="#ffffff" stroke="none" x="480" y="256" width="200" height="32"/></g><g transform="translate(-182,-246) scale(1,1)"><path fill="none" stroke="#000000" d="M 480 256 L 680 256 L 680 288 L 480 288 L 480 256 Z Z" stroke-miterlimit="10"/></g><g transform="translate(-182,-246) scale(1,1)"><rect fill="#ffffff" stroke="none" x="480" y="256" width="200" height="32"/></g><g transform="translate(-182,-246) scale(1,1)"><path fill="none" stroke="#000000" d="M 480 256 L 680 256 L 680 288 L 480 288 L 480 256 Z Z" stroke-miterlimit="10"/></g><g transform="translate(-182,-246) scale(1,1)"><g><path fill="none" stroke="none"/><text fill="#000000" stroke="none" font-family="Arial" font-size="13px" font-style="normal" font-weight="bold" text-decoration="none" x="499" y="275.5">Environment settings object</text><path fill="none" stroke="#000000" d="M 667.5 275.5 L 492.5 275.5" stroke-miterlimit="10"/></g></g><g transform="translate(-182,-246) scale(1,1)"><rect fill="#C0C0C0" stroke="none" x="263" y="487" width="96" height="32" opacity="0.2"/></g><g transform="translate(-182,-246) scale(1,1)"><rect fill="#ffffff" stroke="none" x="256" y="480" width="96" height="32"/></g><g transform="translate(-182,-246) scale(1,1)"><path fill="none" stroke="#000000" d="M 256 480 L 352 480 L 352 512 L 256 512 L 256 480 Z Z" stroke-miterlimit="10"/></g><g transform="translate(-182,-246) scale(1,1)"><rect fill="#ffffff" stroke="none" x="256" y="480" width="96" height="32"/></g><g transform="translate(-182,-246) scale(1,1)"><path fill="none" stroke="#000000" d="M 256 480 L 352 480 L 352 512 L 256 512 L 256 480 Z Z" stroke-miterlimit="10"/></g><g transform="translate(-182,-246) scale(1,1)"><g><path fill="none" stroke="none"/><text fill="#000000" stroke="none" font-family="Arial" font-size="13px" font-style="normal" font-weight="bold" text-decoration="none" x="266" y="499.5">Global object</text><path fill="none" stroke="#000000" d="M 345.5 499.5 L 262.5 499.5" stroke-miterlimit="10"/></g></g><g transform="translate(-182,-246) scale(1,1)"><path fill="none" stroke="#000000" d="M 299 393 Q 296 456 301 479" stroke-miterlimit="10"/></g><g transform="translate(-182,-246) scale(1,1)"><path fill="none" stroke="#000000" d="M 294.7277053398507 469.96350069461283 L 301 479 L 302.95458784923505 468.1750479751815" stroke-miterlimit="10"/></g><g transform="translate(-182,-246) scale(1,1)"><g><path fill="none" stroke="none"/><text fill="#000000" stroke="none" font-family="Arial" font-size="13px" font-style="normal" font-weight="normal" text-decoration="none" x="191.5" y="419.5">+[[GlobalObject]]</text></g></g><g transform="translate(-182,-246) scale(1,1)"><path fill="none" stroke="#000000" d="M 309 359 Q 352 272 479 272" stroke-miterlimit="10"/></g><g transform="translate(-182,-246) scale(1,1)"><path fill="none" stroke="#000000" d="M 468.83732514237585 276.209517756016 L 479 272 L 468.83732514237585 267.790482243984" stroke-miterlimit="10"/></g><g transform="translate(-182,-246) scale(1,1)"><g><path fill="none" stroke="none"/><text fill="#000000" stroke="none" font-family="Arial" font-size="13px" font-style="normal" font-weight="normal" text-decoration="none" x="215.5" y="340.5">+[[HostDefined]]</text></g></g><g transform="translate(-182,-246) scale(1,1)"><path fill="none" stroke="#000000" d="M 471 376 L 361 376" stroke-miterlimit="10"/></g><g transform="translate(-182,-246) scale(1,1)"><path fill="none" stroke="#000000" d="M 371.16267485762415 371.790482243984 L 361 376 L 371.16267485762415 380.209517756016" stroke-miterlimit="10"/></g><g transform="translate(-182,-246) scale(1,1)"><path fill="none" stroke="#000000" d="M 580 289 L 580 359" stroke-miterlimit="10"/></g><g transform="translate(-182,-246) scale(1,1)"><path fill="none" stroke="#000000" d="M 575.790482243984 348.83732514237585 L 580 359 L 584.209517756016 348.83732514237585" stroke-miterlimit="10"/></g></g></svg>